<?xml version="1.0" encoding="utf-8"?><!-- Uploaded to: SVG Repo, www.svgrepo.com, Generator: SVG Repo Mixer Tools -->
<svg fill="#000000" width="800px" height="800px" viewBox="0 0 24 24" id="mic" data-name="Flat Color" xmlns="http://www.w3.org/2000/svg" class="icon flat-color"><path id="secondary" d="M18.87,15.22a1,1,0,0,0-1.41.15,7,7,0,0,1-10.92,0A1,1,0,0,0,5,16.63a8.94,8.94,0,0,0,6,3.31V21a1,1,0,0,0,2,0V19.94a8.94,8.94,0,0,0,6-3.31A1,1,0,0,0,18.87,15.22Z" style="fill: rgb(44, 169, 188);"></path><path id="primary" d="M12,2A5,5,0,0,0,7,7v4a5,5,0,0,0,10,0V7A5,5,0,0,0,12,2Z" style="fill: rgb(0, 0, 0);"></path></svg>